<?xml version="1.0" encoding="UTF-8" standalone="no"?>
<!DOCTYPE svg PUBLIC "-//W3C//DTD SVG 1.1//EN"
 "http://www.w3.org/Graphics/SVG/1.1/DTD/svg11.dtd">
<!-- Generated by graphviz version 2.36.0 (20140111.2315)
 -->
<!-- Title: controllers_diagram Pages: 1 -->
<svg width="893pt" height="892pt"
 viewBox="0.00 0.00 893.00 892.00" xmlns="http://www.w3.org/2000/svg" xmlns:xlink="http://www.w3.org/1999/xlink">
<g id="graph0" class="graph" transform="scale(1 1) rotate(0) translate(4 888)">
<title>controllers_diagram</title>
<polygon fill="white" stroke="none" points="-4,4 -4,-888 889,-888 889,4 -4,4"/>
<!-- _diagram_info -->
<g id="node1" class="node"><title>_diagram_info</title>
<text text-anchor="start" x="236" y="-709.6" font-family="Times,serif" font-size="13.00">Controllers diagram</text>
<text text-anchor="start" x="236" y="-695.6" font-family="Times,serif" font-size="13.00">Date: Apr 28 2015 &#45; 20:22</text>
<text text-anchor="start" x="236" y="-681.6" font-family="Times,serif" font-size="13.00">Migration version: 20150405222948</text>
<text text-anchor="start" x="236" y="-667.6" font-family="Times,serif" font-size="13.00">Generated by RailRoady 1.3.0</text>
<text text-anchor="start" x="236" y="-653.6" font-family="Times,serif" font-size="13.00">http://railroady.prestonlee.com</text>
</g>
<!-- BandsController -->
<g id="node2" class="node"><title>BandsController</title>
<path fill="none" stroke="black" d="M335,-133.5C335,-133.5 433,-133.5 433,-133.5 439,-133.5 445,-139.5 445,-145.5 445,-145.5 445,-589.5 445,-589.5 445,-595.5 439,-601.5 433,-601.5 433,-601.5 335,-601.5 335,-601.5 329,-601.5 323,-595.5 323,-589.5 323,-589.5 323,-145.5 323,-145.5 323,-139.5 329,-133.5 335,-133.5"/>
<text text-anchor="middle" x="384" y="-586.3" font-family="Times,serif" font-size="14.00">BandsController</text>
<polyline fill="none" stroke="black" points="323,-578.5 445,-578.5 "/>
<text text-anchor="start" x="331" y="-563.3" font-family="Times,serif" font-size="14.00">access_error</text>
<text text-anchor="start" x="331" y="-548.3" font-family="Times,serif" font-size="14.00">add_member</text>
<text text-anchor="start" x="331" y="-533.3" font-family="Times,serif" font-size="14.00">add_video</text>
<text text-anchor="start" x="331" y="-518.3" font-family="Times,serif" font-size="14.00">create</text>
<text text-anchor="start" x="331" y="-503.3" font-family="Times,serif" font-size="14.00">destroy_musics</text>
<text text-anchor="start" x="331" y="-488.3" font-family="Times,serif" font-size="14.00">edit</text>
<text text-anchor="start" x="331" y="-473.3" font-family="Times,serif" font-size="14.00">edit_genres</text>
<text text-anchor="start" x="331" y="-458.3" font-family="Times,serif" font-size="14.00">edit_musics</text>
<text text-anchor="start" x="331" y="-443.3" font-family="Times,serif" font-size="14.00">fetch_videos</text>
<text text-anchor="start" x="331" y="-428.3" font-family="Times,serif" font-size="14.00">from_musics</text>
<text text-anchor="start" x="331" y="-413.3" font-family="Times,serif" font-size="14.00">new</text>
<text text-anchor="start" x="331" y="-398.3" font-family="Times,serif" font-size="14.00">new_user_search</text>
<text text-anchor="start" x="331" y="-383.3" font-family="Times,serif" font-size="14.00">not_as_old_create</text>
<text text-anchor="start" x="331" y="-368.3" font-family="Times,serif" font-size="14.00">old_create</text>
<text text-anchor="start" x="331" y="-353.3" font-family="Times,serif" font-size="14.00">old_new</text>
<text text-anchor="start" x="331" y="-338.3" font-family="Times,serif" font-size="14.00">search_results</text>
<text text-anchor="start" x="331" y="-323.3" font-family="Times,serif" font-size="14.00">show</text>
<text text-anchor="start" x="331" y="-308.3" font-family="Times,serif" font-size="14.00">update</text>
<text text-anchor="start" x="331" y="-293.3" font-family="Times,serif" font-size="14.00">update_genres</text>
<text text-anchor="start" x="331" y="-278.3" font-family="Times,serif" font-size="14.00">update_musics</text>
<text text-anchor="start" x="331" y="-263.3" font-family="Times,serif" font-size="14.00">upload_pic</text>
<text text-anchor="start" x="331" y="-248.3" font-family="Times,serif" font-size="14.00">user_search_results</text>
<polyline fill="none" stroke="black" points="323,-240.5 445,-240.5 "/>
<polyline fill="none" stroke="black" points="323,-216.5 445,-216.5 "/>
<text text-anchor="start" x="331" y="-201.3" font-family="Times,serif" font-size="14.00">_layout</text>
<text text-anchor="start" x="331" y="-186.3" font-family="Times,serif" font-size="14.00">band_params</text>
<text text-anchor="start" x="331" y="-171.3" font-family="Times,serif" font-size="14.00">set_band</text>
<text text-anchor="start" x="331" y="-156.3" font-family="Times,serif" font-size="14.00">set_band_admin</text>
<text text-anchor="start" x="331" y="-141.3" font-family="Times,serif" font-size="14.00">verify_admin</text>
</g>
<!-- NotificationsController -->
<g id="node3" class="node"><title>NotificationsController</title>
<path fill="none" stroke="black" d="M487,-133.5C487,-133.5 606,-133.5 606,-133.5 612,-133.5 618,-139.5 618,-145.5 618,-145.5 618,-259.5 618,-259.5 618,-265.5 612,-271.5 606,-271.5 606,-271.5 487,-271.5 487,-271.5 481,-271.5 475,-265.5 475,-259.5 475,-259.5 475,-145.5 475,-145.5 475,-139.5 481,-133.5 487,-133.5"/>
<text text-anchor="middle" x="546.5" y="-256.3" font-family="Times,serif" font-size="14.00">NotificationsController</text>
<polyline fill="none" stroke="black" points="475,-248.5 618,-248.5 "/>
<text text-anchor="start" x="483" y="-233.3" font-family="Times,serif" font-size="14.00">destroy</text>
<text text-anchor="start" x="483" y="-218.3" font-family="Times,serif" font-size="14.00">index</text>
<text text-anchor="start" x="483" y="-203.3" font-family="Times,serif" font-size="14.00">new</text>
<text text-anchor="start" x="483" y="-188.3" font-family="Times,serif" font-size="14.00">test</text>
<polyline fill="none" stroke="black" points="475,-180.5 618,-180.5 "/>
<polyline fill="none" stroke="black" points="475,-156.5 618,-156.5 "/>
<text text-anchor="start" x="483" y="-141.3" font-family="Times,serif" font-size="14.00">_layout</text>
</g>
<!-- BandVideosController -->
<g id="node4" class="node"><title>BandVideosController</title>
<path fill="none" stroke="black" d="M164,-152.5C164,-152.5 279,-152.5 279,-152.5 285,-152.5 291,-158.5 291,-164.5 291,-164.5 291,-323.5 291,-323.5 291,-329.5 285,-335.5 279,-335.5 279,-335.5 164,-335.5 164,-335.5 158,-335.5 152,-329.5 152,-323.5 152,-323.5 152,-164.5 152,-164.5 152,-158.5 158,-152.5 164,-152.5"/>
<text text-anchor="middle" x="221.5" y="-320.3" font-family="Times,serif" font-size="14.00">BandVideosController</text>
<polyline fill="none" stroke="black" points="152,-312.5 291,-312.5 "/>
<text text-anchor="start" x="160" y="-297.3" font-family="Times,serif" font-size="14.00">create</text>
<text text-anchor="start" x="160" y="-282.3" font-family="Times,serif" font-size="14.00">destroy</text>
<text text-anchor="start" x="160" y="-267.3" font-family="Times,serif" font-size="14.00">edit</text>
<text text-anchor="start" x="160" y="-252.3" font-family="Times,serif" font-size="14.00">new</text>
<text text-anchor="start" x="160" y="-237.3" font-family="Times,serif" font-size="14.00">update</text>
<polyline fill="none" stroke="black" points="152,-229.5 291,-229.5 "/>
<polyline fill="none" stroke="black" points="152,-205.5 291,-205.5 "/>
<text text-anchor="start" x="160" y="-190.3" font-family="Times,serif" font-size="14.00">_layout</text>
<text text-anchor="start" x="160" y="-175.3" font-family="Times,serif" font-size="14.00">band_video_params</text>
<text text-anchor="start" x="160" y="-160.3" font-family="Times,serif" font-size="14.00">find_band</text>
</g>
<!-- BandMusicsController -->
<g id="node5" class="node"><title>BandMusicsController</title>
<path fill="none" stroke="black" d="M164,-380.5C164,-380.5 280,-380.5 280,-380.5 286,-380.5 292,-386.5 292,-392.5 292,-392.5 292,-566.5 292,-566.5 292,-572.5 286,-578.5 280,-578.5 280,-578.5 164,-578.5 164,-578.5 158,-578.5 152,-572.5 152,-566.5 152,-566.5 152,-392.5 152,-392.5 152,-386.5 158,-380.5 164,-380.5"/>
<text text-anchor="middle" x="222" y="-563.3" font-family="Times,serif" font-size="14.00">BandMusicsController</text>
<polyline fill="none" stroke="black" points="152,-555.5 292,-555.5 "/>
<text text-anchor="start" x="160" y="-540.3" font-family="Times,serif" font-size="14.00">create</text>
<text text-anchor="start" x="160" y="-525.3" font-family="Times,serif" font-size="14.00">destroy</text>
<text text-anchor="start" x="160" y="-510.3" font-family="Times,serif" font-size="14.00">edit</text>
<text text-anchor="start" x="160" y="-495.3" font-family="Times,serif" font-size="14.00">new</text>
<text text-anchor="start" x="160" y="-480.3" font-family="Times,serif" font-size="14.00">new_band_setup</text>
<text text-anchor="start" x="160" y="-465.3" font-family="Times,serif" font-size="14.00">update</text>
<polyline fill="none" stroke="black" points="152,-457.5 292,-457.5 "/>
<polyline fill="none" stroke="black" points="152,-433.5 292,-433.5 "/>
<text text-anchor="start" x="160" y="-418.3" font-family="Times,serif" font-size="14.00">_layout</text>
<text text-anchor="start" x="160" y="-403.3" font-family="Times,serif" font-size="14.00">band_music_params</text>
<text text-anchor="start" x="160" y="-388.3" font-family="Times,serif" font-size="14.00">find_band</text>
</g>
<!-- StaticPagesController -->
<g id="node6" class="node"><title>StaticPagesController</title>
<path fill="none" stroke="black" d="M373,-760.5C373,-760.5 483,-760.5 483,-760.5 489,-760.5 495,-766.5 495,-772.5 495,-772.5 495,-871.5 495,-871.5 495,-877.5 489,-883.5 483,-883.5 483,-883.5 373,-883.5 373,-883.5 367,-883.5 361,-877.5 361,-871.5 361,-871.5 361,-772.5 361,-772.5 361,-766.5 367,-760.5 373,-760.5"/>
<text text-anchor="middle" x="428" y="-868.3" font-family="Times,serif" font-size="14.00">StaticPagesController</text>
<polyline fill="none" stroke="black" points="361,-860.5 495,-860.5 "/>
<text text-anchor="start" x="369" y="-845.3" font-family="Times,serif" font-size="14.00">about</text>
<text text-anchor="start" x="369" y="-830.3" font-family="Times,serif" font-size="14.00">help</text>
<text text-anchor="start" x="369" y="-815.3" font-family="Times,serif" font-size="14.00">home</text>
<polyline fill="none" stroke="black" points="361,-807.5 495,-807.5 "/>
<polyline fill="none" stroke="black" points="361,-783.5 495,-783.5 "/>
<text text-anchor="start" x="369" y="-768.3" font-family="Times,serif" font-size="14.00">_layout</text>
</g>
<!-- UsersController -->
<g id="node7" class="node"><title>UsersController</title>
<path fill="none" stroke="black" d="M487,-304.5C487,-304.5 590,-304.5 590,-304.5 596,-304.5 602,-310.5 602,-316.5 602,-316.5 602,-715.5 602,-715.5 602,-721.5 596,-727.5 590,-727.5 590,-727.5 487,-727.5 487,-727.5 481,-727.5 475,-721.5 475,-715.5 475,-715.5 475,-316.5 475,-316.5 475,-310.5 481,-304.5 487,-304.5"/>
<text text-anchor="middle" x="538.5" y="-712.3" font-family="Times,serif" font-size="14.00">UsersController</text>
<polyline fill="none" stroke="black" points="475,-704.5 602,-704.5 "/>
<text text-anchor="start" x="483" y="-689.3" font-family="Times,serif" font-size="14.00">accept_band</text>
<text text-anchor="start" x="483" y="-674.3" font-family="Times,serif" font-size="14.00">access_error</text>
<text text-anchor="start" x="483" y="-659.3" font-family="Times,serif" font-size="14.00">change_password</text>
<text text-anchor="start" x="483" y="-644.3" font-family="Times,serif" font-size="14.00">create</text>
<text text-anchor="start" x="483" y="-629.3" font-family="Times,serif" font-size="14.00">destroy</text>
<text text-anchor="start" x="483" y="-614.3" font-family="Times,serif" font-size="14.00">edit</text>
<text text-anchor="start" x="483" y="-599.3" font-family="Times,serif" font-size="14.00">edit_tags</text>
<text text-anchor="start" x="483" y="-584.3" font-family="Times,serif" font-size="14.00">index</text>
<text text-anchor="start" x="483" y="-569.3" font-family="Times,serif" font-size="14.00">leave_band</text>
<text text-anchor="start" x="483" y="-554.3" font-family="Times,serif" font-size="14.00">new</text>
<text text-anchor="start" x="483" y="-539.3" font-family="Times,serif" font-size="14.00">notifications</text>
<text text-anchor="start" x="483" y="-524.3" font-family="Times,serif" font-size="14.00">search</text>
<text text-anchor="start" x="483" y="-509.3" font-family="Times,serif" font-size="14.00">search_results</text>
<text text-anchor="start" x="483" y="-494.3" font-family="Times,serif" font-size="14.00">show</text>
<text text-anchor="start" x="483" y="-479.3" font-family="Times,serif" font-size="14.00">update</text>
<text text-anchor="start" x="483" y="-464.3" font-family="Times,serif" font-size="14.00">update_pic</text>
<text text-anchor="start" x="483" y="-449.3" font-family="Times,serif" font-size="14.00">update_tags</text>
<text text-anchor="start" x="483" y="-434.3" font-family="Times,serif" font-size="14.00">upload_pic</text>
<polyline fill="none" stroke="black" points="475,-426.5 602,-426.5 "/>
<polyline fill="none" stroke="black" points="475,-402.5 602,-402.5 "/>
<text text-anchor="start" x="483" y="-387.3" font-family="Times,serif" font-size="14.00">_layout</text>
<text text-anchor="start" x="483" y="-372.3" font-family="Times,serif" font-size="14.00">picture_params</text>
<text text-anchor="start" x="483" y="-357.3" font-family="Times,serif" font-size="14.00">set_user</text>
<text text-anchor="start" x="483" y="-342.3" font-family="Times,serif" font-size="14.00">set_user_by_session</text>
<text text-anchor="start" x="483" y="-327.3" font-family="Times,serif" font-size="14.00">user_params</text>
<text text-anchor="start" x="483" y="-312.3" font-family="Times,serif" font-size="14.00">verify_correct_user</text>
</g>
<!-- UserSessionsController -->
<g id="node8" class="node"><title>UserSessionsController</title>
<path fill="none" stroke="black" d="M753,-722.5C753,-722.5 873,-722.5 873,-722.5 879,-722.5 885,-728.5 885,-734.5 885,-734.5 885,-833.5 885,-833.5 885,-839.5 879,-845.5 873,-845.5 873,-845.5 753,-845.5 753,-845.5 747,-845.5 741,-839.5 741,-833.5 741,-833.5 741,-734.5 741,-734.5 741,-728.5 747,-722.5 753,-722.5"/>
<text text-anchor="middle" x="813" y="-830.3" font-family="Times,serif" font-size="14.00">UserSessionsController</text>
<polyline fill="none" stroke="black" points="741,-822.5 885,-822.5 "/>
<text text-anchor="start" x="749" y="-807.3" font-family="Times,serif" font-size="14.00">create</text>
<text text-anchor="start" x="749" y="-792.3" font-family="Times,serif" font-size="14.00">destroy</text>
<text text-anchor="start" x="749" y="-777.3" font-family="Times,serif" font-size="14.00">new</text>
<polyline fill="none" stroke="black" points="741,-769.5 885,-769.5 "/>
<polyline fill="none" stroke="black" points="741,-745.5 885,-745.5 "/>
<text text-anchor="start" x="749" y="-730.3" font-family="Times,serif" font-size="14.00">_layout</text>
</g>
<!-- StaticPages::HelpController -->
<g id="node9" class="node"><title>StaticPages::HelpController</title>
<path fill="none" stroke="black" d="M544,-760.5C544,-760.5 688,-760.5 688,-760.5 694,-760.5 700,-766.5 700,-772.5 700,-772.5 700,-856.5 700,-856.5 700,-862.5 694,-868.5 688,-868.5 688,-868.5 544,-868.5 544,-868.5 538,-868.5 532,-862.5 532,-856.5 532,-856.5 532,-772.5 532,-772.5 532,-766.5 538,-760.5 544,-760.5"/>
<text text-anchor="middle" x="616" y="-853.3" font-family="Times,serif" font-size="14.00">StaticPages::HelpController</text>
<polyline fill="none" stroke="black" points="532,-845.5 700,-845.5 "/>
<text text-anchor="start" x="540" y="-830.3" font-family="Times,serif" font-size="14.00">basic_site_nav</text>
<text text-anchor="start" x="540" y="-815.3" font-family="Times,serif" font-size="14.00">creating_account</text>
<polyline fill="none" stroke="black" points="532,-807.5 700,-807.5 "/>
<polyline fill="none" stroke="black" points="532,-783.5 700,-783.5 "/>
<text text-anchor="start" x="540" y="-768.3" font-family="Times,serif" font-size="14.00">_layout</text>
</g>
<!-- ApplicationController -->
<g id="node10" class="node"><title>ApplicationController</title>
<path fill="none" stroke="black" d="M658,-133.5C658,-133.5 770,-133.5 770,-133.5 776,-133.5 782,-139.5 782,-145.5 782,-145.5 782,-319.5 782,-319.5 782,-325.5 776,-331.5 770,-331.5 770,-331.5 658,-331.5 658,-331.5 652,-331.5 646,-325.5 646,-319.5 646,-319.5 646,-145.5 646,-145.5 646,-139.5 652,-133.5 658,-133.5"/>
<text text-anchor="middle" x="714" y="-316.3" font-family="Times,serif" font-size="14.00">ApplicationController</text>
<polyline fill="none" stroke="black" points="646,-308.5 782,-308.5 "/>
<text text-anchor="start" x="654" y="-293.3" font-family="Times,serif" font-size="14.00">success</text>
<polyline fill="none" stroke="black" points="646,-285.5 782,-285.5 "/>
<polyline fill="none" stroke="black" points="646,-261.5 782,-261.5 "/>
<text text-anchor="start" x="654" y="-246.3" font-family="Times,serif" font-size="14.00">_layout</text>
<text text-anchor="start" x="654" y="-231.3" font-family="Times,serif" font-size="14.00">current_user</text>
<text text-anchor="start" x="654" y="-216.3" font-family="Times,serif" font-size="14.00">go_back_link_to</text>
<text text-anchor="start" x="654" y="-201.3" font-family="Times,serif" font-size="14.00">logged_in?</text>
<text text-anchor="start" x="654" y="-186.3" font-family="Times,serif" font-size="14.00">render_404</text>
<text text-anchor="start" x="654" y="-171.3" font-family="Times,serif" font-size="14.00">render_error</text>
<text text-anchor="start" x="654" y="-156.3" font-family="Times,serif" font-size="14.00">require_user</text>
<text text-anchor="start" x="654" y="-141.3" font-family="Times,serif" font-size="14.00">url_exist?</text>
</g>
<!-- UserbandsController -->
<g id="node11" class="node"><title>UserbandsController</title>
<path fill="none" stroke="black" d="M69,-722.5C69,-722.5 174,-722.5 174,-722.5 180,-722.5 186,-728.5 186,-734.5 186,-734.5 186,-848.5 186,-848.5 186,-854.5 180,-860.5 174,-860.5 174,-860.5 69,-860.5 69,-860.5 63,-860.5 57,-854.5 57,-848.5 57,-848.5 57,-734.5 57,-734.5 57,-728.5 63,-722.5 69,-722.5"/>
<text text-anchor="middle" x="121.5" y="-845.3" font-family="Times,serif" font-size="14.00">UserbandsController</text>
<polyline fill="none" stroke="black" points="57,-837.5 186,-837.5 "/>
<text text-anchor="start" x="65" y="-822.3" font-family="Times,serif" font-size="14.00">create</text>
<text text-anchor="start" x="65" y="-807.3" font-family="Times,serif" font-size="14.00">destroy</text>
<text text-anchor="start" x="65" y="-792.3" font-family="Times,serif" font-size="14.00">new</text>
<text text-anchor="start" x="65" y="-777.3" font-family="Times,serif" font-size="14.00">show</text>
<polyline fill="none" stroke="black" points="57,-769.5 186,-769.5 "/>
<polyline fill="none" stroke="black" points="57,-745.5 186,-745.5 "/>
<text text-anchor="start" x="65" y="-730.3" font-family="Times,serif" font-size="14.00">_layout</text>
</g>
<!-- PasswordResetsController -->
<g id="node12" class="node"><title>PasswordResetsController</title>
<path fill="none" stroke="black" d="M658,-361.5C658,-361.5 793,-361.5 793,-361.5 799,-361.5 805,-367.5 805,-373.5 805,-373.5 805,-502.5 805,-502.5 805,-508.5 799,-514.5 793,-514.5 793,-514.5 658,-514.5 658,-514.5 652,-514.5 646,-508.5 646,-502.5 646,-502.5 646,-373.5 646,-373.5 646,-367.5 652,-361.5 658,-361.5"/>
<text text-anchor="middle" x="725.5" y="-499.3" font-family="Times,serif" font-size="14.00">PasswordResetsController</text>
<polyline fill="none" stroke="black" points="646,-491.5 805,-491.5 "/>
<text text-anchor="start" x="654" y="-476.3" font-family="Times,serif" font-size="14.00">create</text>
<text text-anchor="start" x="654" y="-461.3" font-family="Times,serif" font-size="14.00">edit</text>
<text text-anchor="start" x="654" y="-446.3" font-family="Times,serif" font-size="14.00">new</text>
<text text-anchor="start" x="654" y="-431.3" font-family="Times,serif" font-size="14.00">update</text>
<polyline fill="none" stroke="black" points="646,-423.5 805,-423.5 "/>
<polyline fill="none" stroke="black" points="646,-399.5 805,-399.5 "/>
<text text-anchor="start" x="654" y="-384.3" font-family="Times,serif" font-size="14.00">_layout</text>
<text text-anchor="start" x="654" y="-369.3" font-family="Times,serif" font-size="14.00">user_params</text>
</g>
<!-- TagsController -->
<g id="node13" class="node"><title>TagsController</title>
<path fill="none" stroke="black" d="M31,-380.5C31,-380.5 105,-380.5 105,-380.5 111,-380.5 117,-386.5 117,-392.5 117,-392.5 117,-551.5 117,-551.5 117,-557.5 111,-563.5 105,-563.5 105,-563.5 31,-563.5 31,-563.5 25,-563.5 19,-557.5 19,-551.5 19,-551.5 19,-392.5 19,-392.5 19,-386.5 25,-380.5 31,-380.5"/>
<text text-anchor="middle" x="68" y="-548.3" font-family="Times,serif" font-size="14.00">TagsController</text>
<polyline fill="none" stroke="black" points="19,-540.5 117,-540.5 "/>
<text text-anchor="start" x="27" y="-525.3" font-family="Times,serif" font-size="14.00">create</text>
<text text-anchor="start" x="27" y="-510.3" font-family="Times,serif" font-size="14.00">destroy</text>
<text text-anchor="start" x="27" y="-495.3" font-family="Times,serif" font-size="14.00">index</text>
<text text-anchor="start" x="27" y="-480.3" font-family="Times,serif" font-size="14.00">new</text>
<text text-anchor="start" x="27" y="-465.3" font-family="Times,serif" font-size="14.00">update</text>
<polyline fill="none" stroke="black" points="19,-457.5 117,-457.5 "/>
<polyline fill="none" stroke="black" points="19,-433.5 117,-433.5 "/>
<text text-anchor="start" x="27" y="-418.3" font-family="Times,serif" font-size="14.00">_layout</text>
<text text-anchor="start" x="27" y="-403.3" font-family="Times,serif" font-size="14.00">set_tag</text>
<text text-anchor="start" x="27" y="-388.3" font-family="Times,serif" font-size="14.00">tag_params</text>
</g>
<!-- BandStepsController -->
<g id="node14" class="node"><title>BandStepsController</title>
<path fill="none" stroke="black" d="M658,-551.5C658,-551.5 790,-551.5 790,-551.5 796,-551.5 802,-557.5 802,-563.5 802,-563.5 802,-677.5 802,-677.5 802,-683.5 796,-689.5 790,-689.5 790,-689.5 658,-689.5 658,-689.5 652,-689.5 646,-683.5 646,-677.5 646,-677.5 646,-563.5 646,-563.5 646,-557.5 652,-551.5 658,-551.5"/>
<text text-anchor="middle" x="724" y="-674.3" font-family="Times,serif" font-size="14.00">BandStepsController</text>
<polyline fill="none" stroke="black" points="646,-666.5 802,-666.5 "/>
<text text-anchor="start" x="654" y="-651.3" font-family="Times,serif" font-size="14.00">show</text>
<text text-anchor="start" x="654" y="-636.3" font-family="Times,serif" font-size="14.00">update</text>
<polyline fill="none" stroke="black" points="646,-628.5 802,-628.5 "/>
<polyline fill="none" stroke="black" points="646,-604.5 802,-604.5 "/>
<text text-anchor="start" x="654" y="-589.3" font-family="Times,serif" font-size="14.00">_layout</text>
<text text-anchor="start" x="654" y="-574.3" font-family="Times,serif" font-size="14.00">band_params</text>
<text text-anchor="start" x="654" y="-559.3" font-family="Times,serif" font-size="14.00">redirect_to_finish_wizard</text>
</g>
<!-- GenresController -->
<g id="node15" class="node"><title>GenresController</title>
<path fill="none" stroke="black" d="M12,-209.5C12,-209.5 98,-209.5 98,-209.5 104,-209.5 110,-215.5 110,-221.5 110,-221.5 110,-335.5 110,-335.5 110,-341.5 104,-347.5 98,-347.5 98,-347.5 12,-347.5 12,-347.5 6,-347.5 -5.68434e-14,-341.5 -5.68434e-14,-335.5 -5.68434e-14,-335.5 -5.68434e-14,-221.5 -5.68434e-14,-221.5 -5.68434e-14,-215.5 6,-209.5 12,-209.5"/>
<text text-anchor="middle" x="55" y="-332.3" font-family="Times,serif" font-size="14.00">GenresController</text>
<polyline fill="none" stroke="black" points="-5.68434e-14,-324.5 110,-324.5 "/>
<text text-anchor="start" x="8" y="-309.3" font-family="Times,serif" font-size="14.00">edit</text>
<text text-anchor="start" x="8" y="-294.3" font-family="Times,serif" font-size="14.00">new</text>
<polyline fill="none" stroke="black" points="-5.68434e-14,-286.5 110,-286.5 "/>
<polyline fill="none" stroke="black" points="-5.68434e-14,-262.5 110,-262.5 "/>
<text text-anchor="start" x="8" y="-247.3" font-family="Times,serif" font-size="14.00">_layout</text>
<text text-anchor="start" x="8" y="-232.3" font-family="Times,serif" font-size="14.00">genre_params</text>
<text text-anchor="start" x="8" y="-217.3" font-family="Times,serif" font-size="14.00">set_genre</text>
</g>
<!-- SearchesController -->
<g id="node16" class="node"><title>SearchesController</title>
<path fill="none" stroke="black" d="M31,-0.5C31,-0.5 127,-0.5 127,-0.5 133,-0.5 139,-6.5 139,-12.5 139,-12.5 139,-96.5 139,-96.5 139,-102.5 133,-108.5 127,-108.5 127,-108.5 31,-108.5 31,-108.5 25,-108.5 19,-102.5 19,-96.5 19,-96.5 19,-12.5 19,-12.5 19,-6.5 25,-0.5 31,-0.5"/>
<text text-anchor="middle" x="79" y="-93.3" font-family="Times,serif" font-size="14.00">SearchesController</text>
<polyline fill="none" stroke="black" points="19,-85.5 139,-85.5 "/>
<text text-anchor="start" x="27" y="-70.3" font-family="Times,serif" font-size="14.00">create</text>
<text text-anchor="start" x="27" y="-55.3" font-family="Times,serif" font-size="14.00">new</text>
<polyline fill="none" stroke="black" points="19,-47.5 139,-47.5 "/>
<polyline fill="none" stroke="black" points="19,-23.5 139,-23.5 "/>
<text text-anchor="start" x="27" y="-8.3" font-family="Times,serif" font-size="14.00">_layout</text>
</g>
</g>
</svg>
