<?xml version="1.0" encoding="UTF-8" standalone="no"?>
<!DOCTYPE svg PUBLIC "-//W3C//DTD SVG 1.1//EN"
 "http://www.w3.org/Graphics/SVG/1.1/DTD/svg11.dtd">
<!-- Generated by graphviz version 2.36.0 (20140111.2315)
 -->
<!-- Title: models_diagram Pages: 1 -->
<svg width="759pt" height="230pt"
 viewBox="0.00 0.00 759.00 230.00" xmlns="http://www.w3.org/2000/svg" xmlns:xlink="http://www.w3.org/1999/xlink">
<g id="graph0" class="graph" transform="scale(1 1) rotate(0) translate(4 226)">
<title>models_diagram</title>
<polygon fill="white" stroke="none" points="-4,4 -4,-226 755,-226 755,4 -4,4"/>
<!-- _diagram_info -->
<g id="node1" class="node"><title>_diagram_info</title>
<text text-anchor="start" x="8" y="-207.6" font-family="Times,serif" font-size="13.00">Models diagram</text>
<text text-anchor="start" x="8" y="-193.6" font-family="Times,serif" font-size="13.00">Date: Apr 28 2015 &#45; 20:22</text>
<text text-anchor="start" x="8" y="-179.6" font-family="Times,serif" font-size="13.00">Migration version: 20150405222948</text>
<text text-anchor="start" x="8" y="-165.6" font-family="Times,serif" font-size="13.00">Generated by RailRoady 1.3.0</text>
<text text-anchor="start" x="8" y="-151.6" font-family="Times,serif" font-size="13.00">http://railroady.prestonlee.com</text>
</g>
<!-- Search -->
<g id="node2" class="node"><title>Search</title>
<ellipse fill="none" stroke="black" cx="266" cy="-183" rx="34.1708" ry="18"/>
<text text-anchor="middle" x="266" y="-179.3" font-family="Times,serif" font-size="14.00">Search</text>
</g>
<!-- User -->
<g id="node3" class="node"><title>User</title>
<ellipse fill="none" stroke="black" cx="346" cy="-183" rx="26.949" ry="18"/>
<text text-anchor="middle" x="346" y="-179.3" font-family="Times,serif" font-size="14.00">User</text>
</g>
<!-- UserTag -->
<g id="node4" class="node"><title>UserTag</title>
<ellipse fill="none" stroke="black" cx="238" cy="-18" rx="40.4202" ry="18"/>
<text text-anchor="middle" x="238" y="-14.3" font-family="Times,serif" font-size="14.00">UserTag</text>
</g>
<!-- User&#45;&gt;UserTag -->
<g id="edge4" class="edge"><title>User&#45;&gt;UserTag</title>
<path fill="none" stroke="#300c6a" d="M327.186,-161.099C321.57,-155.305 315.241,-149.186 309,-144 286.816,-125.565 270.946,-132.036 255,-108 242.876,-89.7253 238.915,-64.9598 237.822,-46.1929"/>
<ellipse fill="none" stroke="#300c6a" cx="330.213" cy="-164.296" rx="4.00002" ry="4.00002"/>
<polygon fill="#300c6a" stroke="#300c6a" points="237.822,-46.1914 241.971,-36.0404 237.648,-41.1945 237.473,-36.1975 237.473,-36.1975 237.473,-36.1975 237.648,-41.1945 232.976,-36.3546 237.822,-46.1914 237.822,-46.1914"/>
</g>
<!-- UserBand -->
<g id="node5" class="node"><title>UserBand</title>
<ellipse fill="none" stroke="black" cx="344" cy="-18" rx="46.2191" ry="18"/>
<text text-anchor="middle" x="344" y="-14.3" font-family="Times,serif" font-size="14.00">UserBand</text>
</g>
<!-- User&#45;&gt;UserBand -->
<g id="edge2" class="edge"><title>User&#45;&gt;UserBand</title>
<path fill="none" stroke="#547b41" d="M345.687,-156.52C345.32,-126.6 344.714,-77.1639 344.337,-46.4265"/>
<ellipse fill="none" stroke="#547b41" cx="345.741" cy="-160.865" rx="4" ry="4"/>
<polygon fill="#547b41" stroke="#547b41" points="344.336,-46.396 348.713,-36.3415 344.275,-41.3964 344.213,-36.3968 344.213,-36.3968 344.213,-36.3968 344.275,-41.3964 339.714,-36.452 344.336,-46.396 344.336,-46.396"/>
</g>
<!-- Tag -->
<g id="node6" class="node"><title>Tag</title>
<ellipse fill="none" stroke="black" cx="291" cy="-90" rx="27" ry="18"/>
<text text-anchor="middle" x="291" y="-86.3" font-family="Times,serif" font-size="14.00">Tag</text>
</g>
<!-- User&#45;&gt;Tag -->
<g id="edge5" class="edge"><title>User&#45;&gt;Tag</title>
<path fill="none" stroke="#1b16c1" d="M331.076,-157.307C323.286,-144.419 313.781,-128.692 305.983,-115.79"/>
<polygon fill="#1b16c1" stroke="#1b16c1" points="331.247,-157.591 332.568,-168.477 333.833,-161.87 336.42,-166.149 336.42,-166.149 336.42,-166.149 333.833,-161.87 340.271,-163.821 331.247,-157.591 331.247,-157.591"/>
<polygon fill="#1b16c1" stroke="#1b16c1" points="305.828,-115.533 304.506,-104.647 303.241,-111.254 300.655,-106.975 300.655,-106.975 300.655,-106.975 303.241,-111.254 296.804,-109.302 305.828,-115.533 305.828,-115.533"/>
</g>
<!-- Band -->
<g id="node11" class="node"><title>Band</title>
<ellipse fill="none" stroke="black" cx="552" cy="-90" rx="29.3722" ry="18"/>
<text text-anchor="middle" x="552" y="-86.3" font-family="Times,serif" font-size="14.00">Band</text>
</g>
<!-- User&#45;&gt;Band -->
<g id="edge3" class="edge"><title>User&#45;&gt;Band</title>
<path fill="none" stroke="#479abc" d="M377.447,-168.109C415.9,-151.122 480.654,-122.517 519.555,-105.332"/>
<polygon fill="#479abc" stroke="#479abc" points="377.193,-168.221 366.227,-168.145 372.619,-170.241 368.046,-172.261 368.046,-172.261 368.046,-172.261 372.619,-170.241 369.864,-176.378 377.193,-168.221 377.193,-168.221"/>
<polygon fill="#479abc" stroke="#479abc" points="519.71,-105.264 530.675,-105.34 524.283,-103.244 528.857,-101.223 528.857,-101.223 528.857,-101.223 524.283,-103.244 527.038,-97.1072 519.71,-105.264 519.71,-105.264"/>
</g>
<!-- Notification -->
<g id="node13" class="node"><title>Notification</title>
<ellipse fill="none" stroke="black" cx="427" cy="-90" rx="52.9443" ry="18"/>
<text text-anchor="middle" x="427" y="-86.3" font-family="Times,serif" font-size="14.00">Notification</text>
</g>
<!-- User&#45;&gt;Notification -->
<g id="edge1" class="edge"><title>User&#45;&gt;Notification</title>
<path fill="none" stroke="#f7f07c" d="M364.823,-160.853C377.007,-147.165 392.901,-129.309 405.57,-115.076"/>
<ellipse fill="none" stroke="#f7f07c" cx="362.035" cy="-163.985" rx="4.00002" ry="4.00002"/>
<polygon fill="#f7f07c" stroke="#f7f07c" points="405.583,-115.061 415.593,-110.584 408.907,-111.326 412.232,-107.592 412.232,-107.592 412.232,-107.592 408.907,-111.326 408.87,-104.6 405.583,-115.061 405.583,-115.061"/>
</g>
<!-- Tag&#45;&gt;UserTag -->
<g id="edge6" class="edge"><title>Tag&#45;&gt;UserTag</title>
<path fill="none" stroke="#73f7b3" d="M274.378,-67.0469C268.82,-59.7062 262.586,-51.472 256.869,-43.9217"/>
<ellipse fill="none" stroke="#73f7b3" cx="276.823" cy="-70.2757" rx="4.00002" ry="4.00002"/>
<polygon fill="#73f7b3" stroke="#73f7b3" points="256.504,-43.4398 254.056,-32.7508 253.486,-39.4535 250.468,-35.4672 250.468,-35.4672 250.468,-35.4672 253.486,-39.4535 246.88,-38.1836 256.504,-43.4398 256.504,-43.4398"/>
</g>
<!-- Genre -->
<g id="node7" class="node"><title>Genre</title>
<ellipse fill="none" stroke="black" cx="580" cy="-183" rx="32.2457" ry="18"/>
<text text-anchor="middle" x="580" y="-179.3" font-family="Times,serif" font-size="14.00">Genre</text>
</g>
<!-- Genre&#45;&gt;Band -->
<g id="edge8" class="edge"><title>Genre&#45;&gt;Band</title>
<path fill="none" stroke="#502774" d="M571.668,-154.922C568.022,-143.073 563.76,-129.218 560.136,-117.443"/>
<polygon fill="#502774" stroke="#502774" points="571.792,-155.326 570.432,-166.207 573.263,-160.105 574.733,-164.884 574.733,-164.884 574.733,-164.884 573.263,-160.105 579.034,-163.56 571.792,-155.326 571.792,-155.326"/>
<polygon fill="#502774" stroke="#502774" points="560.089,-117.29 561.449,-106.409 558.619,-112.511 557.148,-107.732 557.148,-107.732 557.148,-107.732 558.619,-112.511 552.847,-109.056 560.089,-117.29 560.089,-117.29"/>
</g>
<!-- BandGenre -->
<g id="node12" class="node"><title>BandGenre</title>
<ellipse fill="none" stroke="black" cx="701" cy="-18" rx="50.5427" ry="18"/>
<text text-anchor="middle" x="701" y="-14.3" font-family="Times,serif" font-size="14.00">BandGenre</text>
</g>
<!-- Genre&#45;&gt;BandGenre -->
<g id="edge7" class="edge"><title>Genre&#45;&gt;BandGenre</title>
<path fill="none" stroke="#2a6a70" d="M596.742,-159.446C619.236,-129.145 659.083,-75.467 682.46,-43.9754"/>
<ellipse fill="none" stroke="#2a6a70" cx="594.207" cy="-162.862" rx="4.00002" ry="4.00002"/>
<polygon fill="#2a6a70" stroke="#2a6a70" points="682.628,-43.7489 692.202,-38.4016 685.608,-39.7341 688.589,-35.7194 688.589,-35.7194 688.589,-35.7194 685.608,-39.7341 684.975,-33.0371 682.628,-43.7489 682.628,-43.7489"/>
</g>
<!-- BandVideo -->
<g id="node8" class="node"><title>BandVideo</title>
<ellipse fill="none" stroke="black" cx="459" cy="-18" rx="50.5427" ry="18"/>
<text text-anchor="middle" x="459" y="-14.3" font-family="Times,serif" font-size="14.00">BandVideo</text>
</g>
<!-- BandMusic -->
<g id="node9" class="node"><title>BandMusic</title>
<ellipse fill="none" stroke="black" cx="580" cy="-18" rx="51.4931" ry="18"/>
<text text-anchor="middle" x="580" y="-14.3" font-family="Times,serif" font-size="14.00">BandMusic</text>
</g>
<!-- BandInvite -->
<g id="node10" class="node"><title>BandInvite</title>
<ellipse fill="none" stroke="black" cx="681" cy="-183" rx="50.0684" ry="18"/>
<text text-anchor="middle" x="681" y="-179.3" font-family="Times,serif" font-size="14.00">BandInvite</text>
</g>
<!-- Band&#45;&gt;UserBand -->
<g id="edge9" class="edge"><title>Band&#45;&gt;UserBand</title>
<path fill="none" stroke="#f1b1d5" d="M519.068,-77.9171C483.466,-65.9358 426.567,-46.7871 387.352,-33.5896"/>
<ellipse fill="none" stroke="#f1b1d5" cx="523.119" cy="-79.2805" rx="4.00001" ry="4.00001"/>
<polygon fill="#f1b1d5" stroke="#f1b1d5" points="387.264,-33.5602 379.222,-26.1055 382.525,-31.9653 377.787,-30.3705 377.787,-30.3705 377.787,-30.3705 382.525,-31.9653 376.351,-34.6354 387.264,-33.5602 387.264,-33.5602"/>
</g>
<!-- Band&#45;&gt;BandVideo -->
<g id="edge11" class="edge"><title>Band&#45;&gt;BandVideo</title>
<path fill="none" stroke="#e94965" d="M527.55,-70.5964C515.365,-61.4253 500.552,-50.2758 487.818,-40.691"/>
<ellipse fill="none" stroke="#e94965" cx="530.873" cy="-73.0978" rx="4.00002" ry="4.00002"/>
<polygon fill="#e94965" stroke="#e94965" points="487.788,-40.6687 482.505,-31.0595 483.793,-37.6618 479.799,-34.6549 479.799,-34.6549 479.799,-34.6549 483.793,-37.6618 477.092,-38.2503 487.788,-40.6687 487.788,-40.6687"/>
</g>
<!-- Band&#45;&gt;BandMusic -->
<g id="edge12" class="edge"><title>Band&#45;&gt;BandMusic</title>
<path fill="none" stroke="#1e4aa8" d="M561.689,-64.7779C564.182,-58.544 566.878,-51.8046 569.415,-45.4634"/>
<ellipse fill="none" stroke="#1e4aa8" cx="560.121" cy="-68.6971" rx="4.00001" ry="4.00001"/>
<polygon fill="#1e4aa8" stroke="#1e4aa8" points="569.504,-45.241 577.396,-37.6275 571.361,-40.5986 573.218,-35.9562 573.218,-35.9562 573.218,-35.9562 571.361,-40.5986 569.039,-34.2849 569.504,-45.241 569.504,-45.241"/>
</g>
<!-- Band&#45;&gt;BandGenre -->
<g id="edge10" class="edge"><title>Band&#45;&gt;BandGenre</title>
<path fill="none" stroke="#51df65" d="M582.011,-74.9006C605.19,-64.0112 637.436,-48.8625 662.513,-37.0813"/>
<ellipse fill="none" stroke="#51df65" cx="578.25" cy="-76.6676" rx="4.00002" ry="4.00002"/>
<polygon fill="#51df65" stroke="#51df65" points="662.688,-36.9991 673.652,-36.8198 667.213,-34.873 671.739,-32.7469 671.739,-32.7469 671.739,-32.7469 667.213,-34.873 669.825,-28.674 662.688,-36.9991 662.688,-36.9991"/>
</g>
</g>
</svg>
