<?xml version="1.0" encoding="UTF-8" standalone="no"?>
<!DOCTYPE svg PUBLIC "-//W3C//DTD SVG 1.1//EN"
 "http://www.w3.org/Graphics/SVG/1.1/DTD/svg11.dtd">
<!-- Generated by graphviz version 2.36.0 (20140111.2315)
 -->
<!-- Title: models_diagram Pages: 1 -->
<svg width="1081pt" height="838pt"
 viewBox="0.00 0.00 1081.00 838.00" xmlns="http://www.w3.org/2000/svg" xmlns:xlink="http://www.w3.org/1999/xlink">
<g id="graph0" class="graph" transform="scale(1 1) rotate(0) translate(4 834)">
<title>models_diagram</title>
<polygon fill="white" stroke="none" points="-4,4 -4,-834 1077,-834 1077,4 -4,4"/>
<!-- _diagram_info -->
<g id="node1" class="node"><title>_diagram_info</title>
<text text-anchor="start" x="8" y="-665.6" font-family="Times,serif" font-size="13.00">Models diagram</text>
<text text-anchor="start" x="8" y="-651.6" font-family="Times,serif" font-size="13.00">Date: Apr 28 2015 &#45; 20:22</text>
<text text-anchor="start" x="8" y="-637.6" font-family="Times,serif" font-size="13.00">Migration version: 20150405222948</text>
<text text-anchor="start" x="8" y="-623.6" font-family="Times,serif" font-size="13.00">Generated by RailRoady 1.3.0</text>
<text text-anchor="start" x="8" y="-609.6" font-family="Times,serif" font-size="13.00">http://railroady.prestonlee.com</text>
</g>
<!-- Search -->
<g id="node2" class="node"><title>Search</title>
<path fill="none" stroke="black" d="M244.5,-603C244.5,-603 351.5,-603 351.5,-603 357.5,-603 363.5,-609 363.5,-615 363.5,-615 363.5,-667 363.5,-667 363.5,-673 357.5,-679 351.5,-679 351.5,-679 244.5,-679 244.5,-679 238.5,-679 232.5,-673 232.5,-667 232.5,-667 232.5,-615 232.5,-615 232.5,-609 238.5,-603 244.5,-603"/>
<text text-anchor="middle" x="298" y="-663.8" font-family="Times,serif" font-size="14.00">Search</text>
<polyline fill="none" stroke="black" points="232.5,-656 363.5,-656 "/>
<text text-anchor="start" x="240.5" y="-640.8" font-family="Times,serif" font-size="14.00">id :integer</text>
<text text-anchor="start" x="240.5" y="-625.8" font-family="Times,serif" font-size="14.00">created_at :datetime</text>
<text text-anchor="start" x="240.5" y="-610.8" font-family="Times,serif" font-size="14.00">updated_at :datetime</text>
</g>
<!-- User -->
<g id="node3" class="node"><title>User</title>
<path fill="none" stroke="black" d="M394,-453C394,-453 588,-453 588,-453 594,-453 600,-459 600,-465 600,-465 600,-817 600,-817 600,-823 594,-829 588,-829 588,-829 394,-829 394,-829 388,-829 382,-823 382,-817 382,-817 382,-465 382,-465 382,-459 388,-453 394,-453"/>
<text text-anchor="middle" x="491" y="-813.8" font-family="Times,serif" font-size="14.00">User</text>
<polyline fill="none" stroke="black" points="382,-806 600,-806 "/>
<text text-anchor="start" x="390" y="-790.8" font-family="Times,serif" font-size="14.00">id :integer</text>
<text text-anchor="start" x="390" y="-775.8" font-family="Times,serif" font-size="14.00">display_name :string</text>
<text text-anchor="start" x="390" y="-760.8" font-family="Times,serif" font-size="14.00">first_name :string</text>
<text text-anchor="start" x="390" y="-745.8" font-family="Times,serif" font-size="14.00">last_name :string</text>
<text text-anchor="start" x="390" y="-730.8" font-family="Times,serif" font-size="14.00">email :string</text>
<text text-anchor="start" x="390" y="-715.8" font-family="Times,serif" font-size="14.00">password_digest :string</text>
<text text-anchor="start" x="390" y="-700.8" font-family="Times,serif" font-size="14.00">created_at :datetime</text>
<text text-anchor="start" x="390" y="-685.8" font-family="Times,serif" font-size="14.00">updated_at :datetime</text>
<text text-anchor="start" x="390" y="-670.8" font-family="Times,serif" font-size="14.00">latitude :float</text>
<text text-anchor="start" x="390" y="-655.8" font-family="Times,serif" font-size="14.00">longitude :float</text>
<text text-anchor="start" x="390" y="-640.8" font-family="Times,serif" font-size="14.00">address :string</text>
<text text-anchor="start" x="390" y="-625.8" font-family="Times,serif" font-size="14.00">about_me :string</text>
<text text-anchor="start" x="390" y="-610.8" font-family="Times,serif" font-size="14.00">home_address :string</text>
<text text-anchor="start" x="390" y="-595.8" font-family="Times,serif" font-size="14.00">state :string</text>
<text text-anchor="start" x="390" y="-580.8" font-family="Times,serif" font-size="14.00">password_reset_token :string</text>
<text text-anchor="start" x="390" y="-565.8" font-family="Times,serif" font-size="14.00">profile_picture_file_name :string</text>
<text text-anchor="start" x="390" y="-550.8" font-family="Times,serif" font-size="14.00">profile_picture_content_type :string</text>
<text text-anchor="start" x="390" y="-535.8" font-family="Times,serif" font-size="14.00">profile_picture_file_size :integer</text>
<text text-anchor="start" x="390" y="-520.8" font-family="Times,serif" font-size="14.00">profile_picture_updated_at :datetime</text>
<text text-anchor="start" x="390" y="-505.8" font-family="Times,serif" font-size="14.00">date_of_birth :date</text>
<text text-anchor="start" x="390" y="-490.8" font-family="Times,serif" font-size="14.00">zipcode :integer</text>
<text text-anchor="start" x="390" y="-475.8" font-family="Times,serif" font-size="14.00">city :string</text>
<text text-anchor="start" x="390" y="-460.8" font-family="Times,serif" font-size="14.00">dob :string</text>
</g>
<!-- UserTag -->
<g id="node4" class="node"><title>UserTag</title>
<path fill="none" stroke="black" d="M261.5,-16C261.5,-16 368.5,-16 368.5,-16 374.5,-16 380.5,-22 380.5,-28 380.5,-28 380.5,-110 380.5,-110 380.5,-116 374.5,-122 368.5,-122 368.5,-122 261.5,-122 261.5,-122 255.5,-122 249.5,-116 249.5,-110 249.5,-110 249.5,-28 249.5,-28 249.5,-22 255.5,-16 261.5,-16"/>
<text text-anchor="middle" x="315" y="-106.8" font-family="Times,serif" font-size="14.00">UserTag</text>
<polyline fill="none" stroke="black" points="249.5,-99 380.5,-99 "/>
<text text-anchor="start" x="257.5" y="-83.8" font-family="Times,serif" font-size="14.00">id :integer</text>
<text text-anchor="start" x="257.5" y="-68.8" font-family="Times,serif" font-size="14.00">user_id :integer</text>
<text text-anchor="start" x="257.5" y="-53.8" font-family="Times,serif" font-size="14.00">tag_id :integer</text>
<text text-anchor="start" x="257.5" y="-38.8" font-family="Times,serif" font-size="14.00">created_at :datetime</text>
<text text-anchor="start" x="257.5" y="-23.8" font-family="Times,serif" font-size="14.00">updated_at :datetime</text>
</g>
<!-- User&#45;&gt;UserTag -->
<g id="edge4" class="edge"><title>User&#45;&gt;UserTag</title>
<path fill="none" stroke="#9b237c" d="M376.322,-456.672C374.889,-455.095 373.448,-453.538 372,-452 353.224,-432.068 334.73,-440.244 322,-416 274.917,-326.329 286.805,-204.726 300.417,-132.126"/>
<ellipse fill="none" stroke="#9b237c" cx="379.151" cy="-459.852" rx="4.00002" ry="4.00002"/>
<polygon fill="#9b237c" stroke="#9b237c" points="300.435,-132.032 306.76,-123.074 301.389,-127.124 302.343,-122.216 302.343,-122.216 302.343,-122.216 301.389,-127.124 297.926,-121.357 300.435,-132.032 300.435,-132.032"/>
</g>
<!-- UserBand -->
<g id="node5" class="node"><title>UserBand</title>
<path fill="none" stroke="black" d="M417,-1C417,-1 551,-1 551,-1 557,-1 563,-7 563,-13 563,-13 563,-125 563,-125 563,-131 557,-137 551,-137 551,-137 417,-137 417,-137 411,-137 405,-131 405,-125 405,-125 405,-13 405,-13 405,-7 411,-1 417,-1"/>
<text text-anchor="middle" x="484" y="-121.8" font-family="Times,serif" font-size="14.00">UserBand</text>
<polyline fill="none" stroke="black" points="405,-114 563,-114 "/>
<text text-anchor="start" x="413" y="-98.8" font-family="Times,serif" font-size="14.00">id :integer</text>
<text text-anchor="start" x="413" y="-83.8" font-family="Times,serif" font-size="14.00">user_id :integer</text>
<text text-anchor="start" x="413" y="-68.8" font-family="Times,serif" font-size="14.00">band_id :integer</text>
<text text-anchor="start" x="413" y="-53.8" font-family="Times,serif" font-size="14.00">admin_priveleges :integer</text>
<text text-anchor="start" x="413" y="-38.8" font-family="Times,serif" font-size="14.00">created_at :datetime</text>
<text text-anchor="start" x="413" y="-23.8" font-family="Times,serif" font-size="14.00">updated_at :datetime</text>
<text text-anchor="start" x="413" y="-8.8" font-family="Times,serif" font-size="14.00">role :string</text>
</g>
<!-- User&#45;&gt;UserBand -->
<g id="edge2" class="edge"><title>User&#45;&gt;UserBand</title>
<path fill="none" stroke="#30ead8" d="M488.601,-444.655C487.348,-342.618 485.885,-223.508 484.951,-147.461"/>
<ellipse fill="none" stroke="#30ead8" cx="488.654" cy="-448.966" rx="4" ry="4"/>
<polygon fill="#30ead8" stroke="#30ead8" points="484.946,-147.021 489.323,-136.967 484.885,-142.022 484.823,-137.022 484.823,-137.022 484.823,-137.022 484.885,-142.022 480.323,-137.077 484.946,-147.021 484.946,-147.021"/>
</g>
<!-- Tag -->
<g id="node6" class="node"><title>Tag</title>
<path fill="none" stroke="black" d="M343.5,-249.5C343.5,-249.5 450.5,-249.5 450.5,-249.5 456.5,-249.5 462.5,-255.5 462.5,-261.5 462.5,-261.5 462.5,-328.5 462.5,-328.5 462.5,-334.5 456.5,-340.5 450.5,-340.5 450.5,-340.5 343.5,-340.5 343.5,-340.5 337.5,-340.5 331.5,-334.5 331.5,-328.5 331.5,-328.5 331.5,-261.5 331.5,-261.5 331.5,-255.5 337.5,-249.5 343.5,-249.5"/>
<text text-anchor="middle" x="397" y="-325.3" font-family="Times,serif" font-size="14.00">Tag</text>
<polyline fill="none" stroke="black" points="331.5,-317.5 462.5,-317.5 "/>
<text text-anchor="start" x="339.5" y="-302.3" font-family="Times,serif" font-size="14.00">id :integer</text>
<text text-anchor="start" x="339.5" y="-287.3" font-family="Times,serif" font-size="14.00">created_at :datetime</text>
<text text-anchor="start" x="339.5" y="-272.3" font-family="Times,serif" font-size="14.00">updated_at :datetime</text>
<text text-anchor="start" x="339.5" y="-257.3" font-family="Times,serif" font-size="14.00">content :string</text>
</g>
<!-- User&#45;&gt;Tag -->
<g id="edge5" class="edge"><title>User&#45;&gt;Tag</title>
<path fill="none" stroke="#490109" d="M437.197,-443.103C427.93,-409.192 419.024,-376.6 411.961,-350.751"/>
<polygon fill="#490109" stroke="#490109" points="437.238,-443.254 435.533,-454.086 438.556,-448.077 439.874,-452.9 439.874,-452.9 439.874,-452.9 438.556,-448.077 444.215,-451.714 437.238,-443.254 437.238,-443.254"/>
<polygon fill="#490109" stroke="#490109" points="411.885,-350.472 413.59,-339.64 410.567,-345.649 409.249,-340.826 409.249,-340.826 409.249,-340.826 410.567,-345.649 404.908,-342.012 411.885,-350.472 411.885,-350.472"/>
</g>
<!-- Band -->
<g id="node11" class="node"><title>Band</title>
<path fill="none" stroke="black" d="M687,-174.5C687,-174.5 881,-174.5 881,-174.5 887,-174.5 893,-180.5 893,-186.5 893,-186.5 893,-403.5 893,-403.5 893,-409.5 887,-415.5 881,-415.5 881,-415.5 687,-415.5 687,-415.5 681,-415.5 675,-409.5 675,-403.5 675,-403.5 675,-186.5 675,-186.5 675,-180.5 681,-174.5 687,-174.5"/>
<text text-anchor="middle" x="784" y="-400.3" font-family="Times,serif" font-size="14.00">Band</text>
<polyline fill="none" stroke="black" points="675,-392.5 893,-392.5 "/>
<text text-anchor="start" x="683" y="-377.3" font-family="Times,serif" font-size="14.00">id :integer</text>
<text text-anchor="start" x="683" y="-362.3" font-family="Times,serif" font-size="14.00">name :string</text>
<text text-anchor="start" x="683" y="-347.3" font-family="Times,serif" font-size="14.00">location :string</text>
<text text-anchor="start" x="683" y="-332.3" font-family="Times,serif" font-size="14.00">about_me :string</text>
<text text-anchor="start" x="683" y="-317.3" font-family="Times,serif" font-size="14.00">created_at :datetime</text>
<text text-anchor="start" x="683" y="-302.3" font-family="Times,serif" font-size="14.00">updated_at :datetime</text>
<text text-anchor="start" x="683" y="-287.3" font-family="Times,serif" font-size="14.00">profile_picture_file_name :string</text>
<text text-anchor="start" x="683" y="-272.3" font-family="Times,serif" font-size="14.00">profile_picture_content_type :string</text>
<text text-anchor="start" x="683" y="-257.3" font-family="Times,serif" font-size="14.00">profile_picture_file_size :integer</text>
<text text-anchor="start" x="683" y="-242.3" font-family="Times,serif" font-size="14.00">profile_picture_updated_at :datetime</text>
<text text-anchor="start" x="683" y="-227.3" font-family="Times,serif" font-size="14.00">latitude :float</text>
<text text-anchor="start" x="683" y="-212.3" font-family="Times,serif" font-size="14.00">longitude :float</text>
<text text-anchor="start" x="683" y="-197.3" font-family="Times,serif" font-size="14.00">full_address :string</text>
<text text-anchor="start" x="683" y="-182.3" font-family="Times,serif" font-size="14.00">dob :string</text>
</g>
<!-- User&#45;&gt;Band -->
<g id="edge3" class="edge"><title>User&#45;&gt;Band</title>
<path fill="none" stroke="#fe6314" d="M606.743,-504.11C629.397,-477.514 653.078,-449.711 675.486,-423.403"/>
<polygon fill="#fe6314" stroke="#fe6314" points="606.587,-504.294 596.677,-508.989 603.344,-508.101 600.102,-511.907 600.102,-511.907 600.102,-511.907 603.344,-508.101 603.528,-514.825 606.587,-504.294 606.587,-504.294"/>
<polygon fill="#fe6314" stroke="#fe6314" points="675.598,-423.271 685.508,-418.576 678.84,-419.465 682.082,-415.658 682.082,-415.658 682.082,-415.658 678.84,-419.465 678.656,-412.74 675.598,-423.271 675.598,-423.271"/>
</g>
<!-- Notification -->
<g id="node13" class="node"><title>Notification</title>
<path fill="none" stroke="black" d="M531.5,-227C531.5,-227 638.5,-227 638.5,-227 644.5,-227 650.5,-233 650.5,-239 650.5,-239 650.5,-351 650.5,-351 650.5,-357 644.5,-363 638.5,-363 638.5,-363 531.5,-363 531.5,-363 525.5,-363 519.5,-357 519.5,-351 519.5,-351 519.5,-239 519.5,-239 519.5,-233 525.5,-227 531.5,-227"/>
<text text-anchor="middle" x="585" y="-347.8" font-family="Times,serif" font-size="14.00">Notification</text>
<polyline fill="none" stroke="black" points="519.5,-340 650.5,-340 "/>
<text text-anchor="start" x="527.5" y="-324.8" font-family="Times,serif" font-size="14.00">id :integer</text>
<text text-anchor="start" x="527.5" y="-309.8" font-family="Times,serif" font-size="14.00">content :text</text>
<text text-anchor="start" x="527.5" y="-294.8" font-family="Times,serif" font-size="14.00">user_id :integer</text>
<text text-anchor="start" x="527.5" y="-279.8" font-family="Times,serif" font-size="14.00">created_at :datetime</text>
<text text-anchor="start" x="527.5" y="-264.8" font-family="Times,serif" font-size="14.00">updated_at :datetime</text>
<text text-anchor="start" x="527.5" y="-249.8" font-family="Times,serif" font-size="14.00">band_id :integer</text>
<text text-anchor="start" x="527.5" y="-234.8" font-family="Times,serif" font-size="14.00">special_chars :string</text>
</g>
<!-- User&#45;&gt;Notification -->
<g id="edge1" class="edge"><title>User&#45;&gt;Notification</title>
<path fill="none" stroke="#b93f0a" d="M544.283,-445.006C551.244,-419.532 558.018,-394.743 563.979,-372.929"/>
<ellipse fill="none" stroke="#b93f0a" cx="543.181" cy="-449.042" rx="4.00001" ry="4.00001"/>
<polygon fill="#b93f0a" stroke="#b93f0a" points="564.022,-372.77 570.999,-364.31 565.34,-367.947 566.658,-363.124 566.658,-363.124 566.658,-363.124 565.34,-367.947 562.317,-361.938 564.022,-372.77 564.022,-372.77"/>
</g>
<!-- Tag&#45;&gt;UserTag -->
<g id="edge6" class="edge"><title>Tag&#45;&gt;UserTag</title>
<path fill="none" stroke="#29a8b9" d="M377.794,-241.535C365.776,-208.705 350.235,-166.253 337.622,-131.795"/>
<ellipse fill="none" stroke="#29a8b9" cx="379.326" cy="-245.721" rx="4.00001" ry="4.00001"/>
<polygon fill="#29a8b9" stroke="#29a8b9" points="337.584,-131.694 338.372,-120.756 335.866,-126.999 334.147,-122.303 334.147,-122.303 334.147,-122.303 335.866,-126.999 329.921,-123.85 337.584,-131.694 337.584,-131.694"/>
</g>
<!-- Genre -->
<g id="node7" class="node"><title>Genre</title>
<path fill="none" stroke="black" d="M805.5,-595.5C805.5,-595.5 912.5,-595.5 912.5,-595.5 918.5,-595.5 924.5,-601.5 924.5,-607.5 924.5,-607.5 924.5,-674.5 924.5,-674.5 924.5,-680.5 918.5,-686.5 912.5,-686.5 912.5,-686.5 805.5,-686.5 805.5,-686.5 799.5,-686.5 793.5,-680.5 793.5,-674.5 793.5,-674.5 793.5,-607.5 793.5,-607.5 793.5,-601.5 799.5,-595.5 805.5,-595.5"/>
<text text-anchor="middle" x="859" y="-671.3" font-family="Times,serif" font-size="14.00">Genre</text>
<polyline fill="none" stroke="black" points="793.5,-663.5 924.5,-663.5 "/>
<text text-anchor="start" x="801.5" y="-648.3" font-family="Times,serif" font-size="14.00">id :integer</text>
<text text-anchor="start" x="801.5" y="-633.3" font-family="Times,serif" font-size="14.00">created_at :datetime</text>
<text text-anchor="start" x="801.5" y="-618.3" font-family="Times,serif" font-size="14.00">updated_at :datetime</text>
<text text-anchor="start" x="801.5" y="-603.3" font-family="Times,serif" font-size="14.00">content :string</text>
</g>
<!-- Genre&#45;&gt;Band -->
<g id="edge8" class="edge"><title>Genre&#45;&gt;Band</title>
<path fill="none" stroke="#a6bfee" d="M847.102,-585.427C837.741,-542.492 824.307,-480.875 812.238,-425.52"/>
<polygon fill="#a6bfee" stroke="#a6bfee" points="847.142,-585.61 844.875,-596.339 848.207,-590.495 849.272,-595.381 849.272,-595.381 849.272,-595.381 848.207,-590.495 853.669,-594.422 847.142,-585.61 847.142,-585.61"/>
<polygon fill="#a6bfee" stroke="#a6bfee" points="812.211,-425.393 814.477,-414.664 811.146,-420.508 810.081,-415.623 810.081,-415.623 810.081,-415.623 811.146,-420.508 805.684,-416.581 812.211,-425.393 812.211,-425.393"/>
</g>
<!-- BandGenre -->
<g id="node12" class="node"><title>BandGenre</title>
<path fill="none" stroke="black" d="M905.5,-16C905.5,-16 1012.5,-16 1012.5,-16 1018.5,-16 1024.5,-22 1024.5,-28 1024.5,-28 1024.5,-110 1024.5,-110 1024.5,-116 1018.5,-122 1012.5,-122 1012.5,-122 905.5,-122 905.5,-122 899.5,-122 893.5,-116 893.5,-110 893.5,-110 893.5,-28 893.5,-28 893.5,-22 899.5,-16 905.5,-16"/>
<text text-anchor="middle" x="959" y="-106.8" font-family="Times,serif" font-size="14.00">BandGenre</text>
<polyline fill="none" stroke="black" points="893.5,-99 1024.5,-99 "/>
<text text-anchor="start" x="901.5" y="-83.8" font-family="Times,serif" font-size="14.00">id :integer</text>
<text text-anchor="start" x="901.5" y="-68.8" font-family="Times,serif" font-size="14.00">band_id :integer</text>
<text text-anchor="start" x="901.5" y="-53.8" font-family="Times,serif" font-size="14.00">genre_id :integer</text>
<text text-anchor="start" x="901.5" y="-38.8" font-family="Times,serif" font-size="14.00">created_at :datetime</text>
<text text-anchor="start" x="901.5" y="-23.8" font-family="Times,serif" font-size="14.00">updated_at :datetime</text>
</g>
<!-- Genre&#45;&gt;BandGenre -->
<g id="edge7" class="edge"><title>Genre&#45;&gt;BandGenre</title>
<path fill="none" stroke="#dda2b6" d="M869.481,-587.515C878.44,-542.166 891.507,-474.841 902,-416 919.673,-316.889 938.298,-201.447 949.271,-132.128"/>
<ellipse fill="none" stroke="#dda2b6" cx="868.69" cy="-591.515" rx="4.00001" ry="4.00001"/>
<polygon fill="#dda2b6" stroke="#dda2b6" points="949.272,-132.12 955.278,-122.946 950.053,-127.182 950.833,-122.243 950.833,-122.243 950.833,-122.243 950.053,-127.182 946.389,-121.54 949.272,-132.12 949.272,-132.12"/>
</g>
<!-- BandVideo -->
<g id="node8" class="node"><title>BandVideo</title>
<path fill="none" stroke="black" d="M593.5,-1C593.5,-1 714.5,-1 714.5,-1 720.5,-1 726.5,-7 726.5,-13 726.5,-13 726.5,-125 726.5,-125 726.5,-131 720.5,-137 714.5,-137 714.5,-137 593.5,-137 593.5,-137 587.5,-137 581.5,-131 581.5,-125 581.5,-125 581.5,-13 581.5,-13 581.5,-7 587.5,-1 593.5,-1"/>
<text text-anchor="middle" x="654" y="-121.8" font-family="Times,serif" font-size="14.00">BandVideo</text>
<polyline fill="none" stroke="black" points="581.5,-114 726.5,-114 "/>
<text text-anchor="start" x="589.5" y="-98.8" font-family="Times,serif" font-size="14.00">id :integer</text>
<text text-anchor="start" x="589.5" y="-83.8" font-family="Times,serif" font-size="14.00">band_id :integer</text>
<text text-anchor="start" x="589.5" y="-68.8" font-family="Times,serif" font-size="14.00">video_link :string</text>
<text text-anchor="start" x="589.5" y="-53.8" font-family="Times,serif" font-size="14.00">video_link_html :string</text>
<text text-anchor="start" x="589.5" y="-38.8" font-family="Times,serif" font-size="14.00">created_at :datetime</text>
<text text-anchor="start" x="589.5" y="-23.8" font-family="Times,serif" font-size="14.00">updated_at :datetime</text>
<text text-anchor="start" x="589.5" y="-8.8" font-family="Times,serif" font-size="14.00">video_name :string</text>
</g>
<!-- BandMusic -->
<g id="node9" class="node"><title>BandMusic</title>
<path fill="none" stroke="black" d="M756.5,-8.5C756.5,-8.5 863.5,-8.5 863.5,-8.5 869.5,-8.5 875.5,-14.5 875.5,-20.5 875.5,-20.5 875.5,-117.5 875.5,-117.5 875.5,-123.5 869.5,-129.5 863.5,-129.5 863.5,-129.5 756.5,-129.5 756.5,-129.5 750.5,-129.5 744.5,-123.5 744.5,-117.5 744.5,-117.5 744.5,-20.5 744.5,-20.5 744.5,-14.5 750.5,-8.5 756.5,-8.5"/>
<text text-anchor="middle" x="810" y="-114.3" font-family="Times,serif" font-size="14.00">BandMusic</text>
<polyline fill="none" stroke="black" points="744.5,-106.5 875.5,-106.5 "/>
<text text-anchor="start" x="752.5" y="-91.3" font-family="Times,serif" font-size="14.00">id :integer</text>
<text text-anchor="start" x="752.5" y="-76.3" font-family="Times,serif" font-size="14.00">band_id :integer</text>
<text text-anchor="start" x="752.5" y="-61.3" font-family="Times,serif" font-size="14.00">embed_html :text</text>
<text text-anchor="start" x="752.5" y="-46.3" font-family="Times,serif" font-size="14.00">name :string</text>
<text text-anchor="start" x="752.5" y="-31.3" font-family="Times,serif" font-size="14.00">created_at :datetime</text>
<text text-anchor="start" x="752.5" y="-16.3" font-family="Times,serif" font-size="14.00">updated_at :datetime</text>
</g>
<!-- BandInvite -->
<g id="node10" class="node"><title>BandInvite</title>
<path fill="none" stroke="black" d="M954.5,-573C954.5,-573 1061.5,-573 1061.5,-573 1067.5,-573 1073.5,-579 1073.5,-585 1073.5,-585 1073.5,-697 1073.5,-697 1073.5,-703 1067.5,-709 1061.5,-709 1061.5,-709 954.5,-709 954.5,-709 948.5,-709 942.5,-703 942.5,-697 942.5,-697 942.5,-585 942.5,-585 942.5,-579 948.5,-573 954.5,-573"/>
<text text-anchor="middle" x="1008" y="-693.8" font-family="Times,serif" font-size="14.00">BandInvite</text>
<polyline fill="none" stroke="black" points="942.5,-686 1073.5,-686 "/>
<text text-anchor="start" x="950.5" y="-670.8" font-family="Times,serif" font-size="14.00">id :integer</text>
<text text-anchor="start" x="950.5" y="-655.8" font-family="Times,serif" font-size="14.00">content :text</text>
<text text-anchor="start" x="950.5" y="-640.8" font-family="Times,serif" font-size="14.00">user_id :integer</text>
<text text-anchor="start" x="950.5" y="-625.8" font-family="Times,serif" font-size="14.00">created_at :datetime</text>
<text text-anchor="start" x="950.5" y="-610.8" font-family="Times,serif" font-size="14.00">updated_at :datetime</text>
<text text-anchor="start" x="950.5" y="-595.8" font-family="Times,serif" font-size="14.00">band_id :integer</text>
<text text-anchor="start" x="950.5" y="-580.8" font-family="Times,serif" font-size="14.00">special_chars :string</text>
</g>
<!-- Band&#45;&gt;UserBand -->
<g id="edge9" class="edge"><title>Band&#45;&gt;UserBand</title>
<path fill="none" stroke="#e313a9" d="M667.883,-180.064C664.934,-177.975 661.971,-175.95 659,-174 624.357,-151.267 608.867,-158.748 573,-138 572.59,-137.763 572.179,-137.524 571.768,-137.283"/>
<ellipse fill="none" stroke="#e313a9" cx="671.503" cy="-182.698" rx="4.00002" ry="4.00002"/>
<polygon fill="#e313a9" stroke="#e313a9" points="571.665,-137.22 565.468,-128.173 567.395,-134.618 563.126,-132.015 563.126,-132.015 563.126,-132.015 567.395,-134.618 560.784,-135.858 571.665,-137.22 571.665,-137.22"/>
</g>
<!-- Band&#45;&gt;BandVideo -->
<g id="edge11" class="edge"><title>Band&#45;&gt;BandVideo</title>
<path fill="none" stroke="#205175" d="M710.448,-167.264C706.221,-159.98 702.043,-152.781 697.987,-145.793"/>
<ellipse fill="none" stroke="#205175" cx="712.615" cy="-170.999" rx="4.00002" ry="4.00002"/>
<polygon fill="#205175" stroke="#205175" points="697.94,-145.712 696.813,-134.805 695.43,-141.388 692.921,-137.063 692.921,-137.063 692.921,-137.063 695.43,-141.388 689.029,-139.322 697.94,-145.712 697.94,-145.712"/>
</g>
<!-- Band&#45;&gt;BandMusic -->
<g id="edge12" class="edge"><title>Band&#45;&gt;BandMusic</title>
<path fill="none" stroke="#4bf9d6" d="M798.802,-166.472C799.868,-157.287 800.918,-148.245 801.922,-139.598"/>
<ellipse fill="none" stroke="#4bf9d6" cx="798.337" cy="-170.485" rx="4.00001" ry="4.00001"/>
<polygon fill="#4bf9d6" stroke="#4bf9d6" points="801.924,-139.577 807.547,-130.162 802.501,-134.61 803.077,-129.643 803.077,-129.643 803.077,-129.643 802.501,-134.61 798.607,-129.125 801.924,-139.577 801.924,-139.577"/>
</g>
<!-- Band&#45;&gt;BandGenre -->
<g id="edge10" class="edge"><title>Band&#45;&gt;BandGenre</title>
<path fill="none" stroke="#742d32" d="M882.42,-168.022C892.651,-154.926 902.68,-142.09 911.935,-130.243"/>
<ellipse fill="none" stroke="#742d32" cx="879.855" cy="-171.306" rx="4.00002" ry="4.00002"/>
<polygon fill="#742d32" stroke="#742d32" points="912.055,-130.089 921.758,-124.979 915.134,-126.149 918.212,-122.209 918.212,-122.209 918.212,-122.209 915.134,-126.149 914.666,-119.438 912.055,-130.089 912.055,-130.089"/>
</g>
</g>
</svg>
